<?xml version="1.0" encoding="UTF-8"?>
<svg version="1.1" viewBox="0 0 2048 1061" width="764" height="396" xmlns="http://www.w3.org/2000/svg">
<path transform="translate(0)" d="m0 0h2048v1061h-2048z" fill="#2F2F2F"/>
<path transform="translate(1181,532)" d="m0 0 4 4 6 11 61 1 15 2 15 6 14 12 7 9 8 16 5 15 2 10 1 13v11l-2 13-4 15-9 17-10 11-13 8-15 5-10 1h-75z" fill="#2F2F2F"/>
<path transform="translate(1164,379)" d="m0 0h64l18 2 16 5 14 8 11 9 9 12 7 16 3 12 2 21-2 19-4 15-5 12-7 11-11 11-6 4 15 6 11 7 12 12 10 15 7 18 4 15 2 17v13l-2 19-6 21-7 14-8 11-10 10-10 7-14 6-12 3-9 1h-91l-1-1v-201l1-1 78-1 12-2 9-4 9-6 7-9 6-13 3-12 1-11v-10l-2-14-4-13-5-10-7-9-7-6-11-5-14-3-13-1-46-1v120l-9 1h-7l-1-1zm17 153v180h75l14-2 15-6 11-8 8-9 9-17 5-19 1-9v-11l-2-19-5-17-8-16-6-9-12-11-8-5-11-4-15-2-61-1-8-14z" fill="#6A6A6A"/>
<path transform="translate(163,380)" d="m0 0 55 1 18 3 14 4 19 8 14 9 14 11 11 11 15 20 12 23 9 27 4 19 2 19v30l-2 21-5 24-8 23-12 25-12 18-12 14-8 9-13 10-14 8-5 3-5-1-3-9v-3l15-8 13-10 13-13 10-13 9-15 11-23 7-23 4-19 1-12v-42l-4-26-5-17-8-19-8-14-12-16-12-12-16-11-12-7-16-6-18-4-9-1-37-1v322l41-2 14-2h5l2 9-1 5-16 3-14 1h-45l-1-1v-349z" fill="#6A6A6A"/>
<path transform="translate(1529,380)" d="m0 0h33l22 3 19 5 19 7 16 8 15 10 9 7 10 9 13 13 13 17 11 19 6 14 5 15 5 25 1 8v34l-4 24-5 16-6 15-9 16-8 11-8 10-14 15-12 11-17 12-15 9-17 7-19 6-20 4-13 1h-25l-18-2-21-5-15-5-16-7-1-4 3-5 3-4 7 1 17 7 19 5 22 3h26l27-4 20-6 23-11 12-8 14-11 16-16 14-19 9-15 5-12 5-16 3-14 1-7v-37l-3-19-6-20-5-12-9-17-10-14-14-15-13-12-16-11-12-7-20-8-19-5-20-3h-31l-20 3-19 5-15 6-17 9-14 10-14 12-9 10-8 10-9 14-3 1-11-6 1-5 14-20 10-11 4-5 8-7 14-11 18-11 26-11 18-5 15-3z" fill="#6A6A6A"/>
<path transform="translate(546,380)" d="m0 0h32l21 3 20 5 19 7 16 8 18 12 10 8 19 19 10 13 11 17 8 17 6 18 4 17 2 14v35l-3 20-5 19-8 19-9 15-10 14-11 13-10 10-8 7-17 13-19 11-15 6-19 6-21 4-13 1h-20l-20-2-23-5-15-5-14-6-3-2 2-5 4-7 7 1 17 7 25 6 16 2h26l22-3 19-5 16-6 16-9 13-9 11-9 7-6 7-8 12-15 11-18 5-10 6-18 3-14 2-19v-17l-2-20-5-21-6-17-10-19-8-11-9-11-15-15-14-11-11-7-16-8-19-7-18-4-14-2h-34l-19 3-15 4-16 6-17 9-15 10-14 12-7 7-8 10-7 10-6 9-6-2-7-5 2-5 9-13 6-8 15-16 10-9 18-13 27-13 18-6 23-5z" fill="#6A6A6A"/>
<path transform="translate(952,381)" d="m0 0h41l23 4 18 6 16 7 18 12 14 11 12 12 12 16 1 3-9 8-5-3-9-12-7-8-11-9-10-8-15-9-17-7-17-5-18-3h-37l-19 3-21 6-23 12-15 11-13 12-13 14-12 17-10 19-6 18-3 15-1 8v33l3 24 5 20 6 16 10 19 15 22 11 12 11 9 13 9 11 6 15 6 20 5 19 3 1 4-1 11h-7l-29-6-19-7-16-8-15-10-14-12-9-9-10-13-10-15-12-23-8-25-5-27-1-11v-33l3-18 5-20 12-25 9-14 12-16 11-12 10-9 17-12 19-10 16-6 19-5z" fill="#6A6A6A"/>
<path transform="translate(1784,379)" d="m0 0h131v14l-1 1h-39v336l-1 1h-15l-1-1v-336h-74l-1-1v-13z" fill="#6A6A6A"/>
<path transform="translate(1096,654)" d="m0 0 7 4 4 3v3l-5 5-6 8-15 15-18 13-16 9-16 7-17 5-30 5-3-2v-13l2-1 22-3 21-6 18-8 14-8 14-11 10-9 8-9z" fill="#6A6A6A"/>
<path transform="translate(1926,379)" d="m0 0h25v15h-25l-1-1v-13z" fill="#6A6A6A"/>
</svg>
